<svg width="42" height="34" viewBox="0 0 42 34" fill="none" xmlns="http://www.w3.org/2000/svg">
<path d="M7.5 4H34L37 7V25H7.5L4.5 22V7.5L7.5 4Z" fill="#FFE288"/>
<path d="M32.3887 7.66387H9.61106C9.25954 7.66387 8.97466 7.94875 8.97466 8.30027C8.97466 8.65179 9.25954 8.93668 9.61106 8.93668H32.3887C32.7402 8.93668 33.0251 8.65179 33.0251 8.30027C33.0251 7.94875 32.7402 7.66387 32.3887 7.66387Z" fill="#5266B2" stroke="#5266B2" stroke-width="0.1"/>
<path d="M32.3887 14.0496H9.61106C9.25954 14.0496 8.97466 14.3345 8.97466 14.686C8.97466 15.0375 9.25954 15.3224 9.61106 15.3224H32.3887C32.7402 15.3224 33.0251 15.0375 33.0251 14.686C33.0251 14.3345 32.7402 14.0496 32.3887 14.0496Z" fill="#5266B2" stroke="#5266B2" stroke-width="0.1"/>
<path d="M24.9213 18.1932H17.0786C16.7271 18.1932 16.4422 18.4781 16.4422 18.8296C16.4422 19.181 16.7271 19.466 17.0786 19.466H24.9213C25.2728 19.466 25.5577 19.1811 25.5577 18.8296C25.5577 18.4781 25.2728 18.1932 24.9213 18.1932Z" fill="#5266B2" stroke="#5266B2" stroke-width="0.1"/>
<path d="M32.3891 10.8436H15.3989C15.0474 10.8436 14.7625 11.1284 14.7625 11.48C14.7625 11.8314 15.0474 12.1164 15.3989 12.1164H32.3891C32.7406 12.1164 33.0255 11.8315 33.0255 11.48C33.0255 11.1284 32.7406 10.8436 32.3891 10.8436Z" fill="#5266B2" stroke="#5266B2" stroke-width="0.1"/>
<path d="M12.6703 10.8436H9.61106C9.25954 10.8436 8.97466 11.1284 8.97466 11.48C8.97466 11.8315 9.25954 12.1164 9.61106 12.1164H12.6703C13.0218 12.1164 13.3067 11.8315 13.3067 11.48C13.3067 11.1285 13.0218 10.8436 12.6703 10.8436Z" fill="#5266B2" stroke="#5266B2" stroke-width="0.1"/>
<ellipse cx="32.5" cy="23" rx="5.5" ry="5" fill="white"/>
<path d="M4.49724 6.46306C4.08446 6.48161 3.76128 6.82085 3.76128 7.2348V22.3927C3.76128 22.8067 4.08446 23.1458 4.49724 23.1644C5.60513 23.2143 6.51249 24.1216 6.56235 25.2299L6.56235 25.2299C6.58115 25.6425 6.92038 25.9655 7.33409 25.9655H24.6448C24.9963 25.9655 25.2812 25.6806 25.2812 25.3291C25.2812 24.9777 24.9963 24.6927 24.6448 24.6927H7.77926C7.52157 23.2932 6.43346 22.2051 5.03401 21.9474V7.6799C6.43347 7.4222 7.52157 6.33387 7.77926 4.93465H34.0814C34.3497 6.37875 35.5112 7.4928 36.9659 7.70246V17.6174C36.9659 17.9688 37.2508 18.2538 37.6023 18.2538C37.9538 18.2538 38.2387 17.9689 38.2387 17.6174V7.23809C38.2387 7.02944 38.1566 6.83362 38.0077 6.68734L37.9727 6.72301L38.0077 6.68734C37.8619 6.54412 37.6688 6.46527 37.4632 6.46527H37.4631H37.4631H37.463H37.463H37.463H37.4629H37.4629H37.4629H37.4629H37.4628H37.4628C36.301 6.46527 35.3503 5.55721 35.2979 4.39755L35.2979 4.39753C35.2791 3.98493 34.94 3.66191 34.5263 3.66191H7.33409C6.92028 3.66191 6.58106 3.98502 6.56235 4.39793L6.56235 4.39795C6.51249 5.50577 5.60514 6.4132 4.49724 6.46306ZM4.49724 6.46306L4.49948 6.51301L4.49723 6.46306C4.49724 6.46306 4.49724 6.46306 4.49724 6.46306Z" fill="#5266B2" stroke="#5266B2" stroke-width="0.1"/>
<mask id="path-9-outside-1" maskUnits="userSpaceOnUse" x="0" y="-0.214844" width="42" height="34" fill="black">
<rect fill="white" y="-0.214844" width="42" height="34"/>
<path d="M39.3723 0.785156H2.62773C1.73023 0.785156 1 1.51539 1 2.41289V27.2152C1 28.1128 1.73023 28.843 2.62773 28.843H27.2409L26.3695 30.669C26.2575 30.9034 26.2848 31.1784 26.4404 31.3863C26.5961 31.5944 26.8523 31.6977 27.1086 31.6567L28.7309 31.3959L29.6359 32.8813C29.7627 33.0898 29.9882 33.2155 30.2305 33.2155C30.2423 33.2155 30.2541 33.2152 30.266 33.2146C30.5216 33.2016 30.7489 33.0501 30.8593 32.819L32.4316 29.5242L34.0038 32.8188C34.114 33.0498 34.3412 33.2016 34.597 33.2147C34.6089 33.2153 34.6209 33.2156 34.6328 33.2156C34.8751 33.2156 35.1005 33.0898 35.2274 32.8815L36.1323 31.3961L37.7547 31.657C38.0118 31.698 38.2675 31.5944 38.423 31.3863C38.5787 31.1781 38.6057 30.9033 38.4938 30.6692L37.6223 28.8432H39.3723C40.2698 28.8432 41 28.113 41 27.2155V2.41289C41 1.51539 40.2698 0.785156 39.3723 0.785156ZM30.1798 31.5199L29.5659 30.5125C29.4181 30.2698 29.1414 30.1422 28.8606 30.1873L27.8189 30.3548L28.9163 28.0554C29.3488 28.4967 29.9649 28.7352 30.6045 28.6749C30.8232 28.654 31.0424 28.7129 31.2216 28.8402C31.2806 28.8822 31.342 28.9195 31.4041 28.9546L30.1798 31.5199ZM32.5715 28.0427C32.5697 28.043 32.5679 28.0431 32.566 28.0434C32.4771 28.0566 32.3867 28.0566 32.2978 28.0435C32.2955 28.0432 32.2933 28.043 32.2911 28.0427C32.1534 28.0213 32.0195 27.9686 31.9009 27.8843C31.5462 27.6321 31.1227 27.498 30.6906 27.498C30.6252 27.498 30.5595 27.5012 30.4939 27.5073C30.1057 27.544 29.7369 27.3308 29.5748 26.9767C29.5029 26.8195 29.4111 26.6741 29.3045 26.541C29.2998 26.5344 29.2947 26.5281 29.2898 26.5217C29.2838 26.5145 29.2783 26.5071 29.2723 26.5C29.2655 26.492 29.2584 26.4845 29.2512 26.4769C29.0573 26.2538 28.8177 26.0716 28.5448 25.9467C28.1906 25.7847 27.9774 25.4153 28.0141 25.0276C28.0613 24.5287 27.9275 24.029 27.6372 23.6206C27.4115 23.3032 27.4115 22.8767 27.6371 22.5593C27.9275 22.1509 28.0613 21.6513 28.0141 21.1523C27.9774 20.7646 28.1907 20.3952 28.5448 20.2332C29.0005 20.0247 29.3662 19.6589 29.5748 19.2032C29.7369 18.8491 30.107 18.6358 30.4939 18.6726C30.9934 18.7197 31.4926 18.5859 31.9009 18.2955C32.2184 18.0699 32.6449 18.0699 32.9623 18.2955C33.3707 18.5859 33.87 18.7194 34.3693 18.6726C34.7573 18.6357 35.1265 18.8491 35.2885 19.2032C35.497 19.6589 35.8628 20.0247 36.3184 20.2331C36.6726 20.3952 36.8859 20.7646 36.8491 21.1523C36.802 21.6513 36.9358 22.1509 37.2261 22.5592C37.4518 22.8766 37.4518 23.3031 37.2261 23.6205C36.9358 24.029 36.802 24.5287 36.8491 25.0275C36.8859 25.4152 36.6726 25.7846 36.3184 25.9467C36.0461 26.0713 35.807 26.253 35.6134 26.4755C35.6054 26.4838 35.5976 26.4921 35.5902 26.5008C35.5852 26.5069 35.5804 26.5132 35.5753 26.5194C35.5695 26.5269 35.5635 26.5342 35.558 26.542C35.4518 26.6748 35.3602 26.8199 35.2885 26.9767C35.1264 27.3308 34.757 27.5441 34.3693 27.5073C33.8709 27.4604 33.3709 27.594 32.9623 27.8843C32.8435 27.9687 32.7095 28.0215 32.5715 28.0427ZM36.0026 30.1872C35.7217 30.1423 35.4452 30.2698 35.2973 30.5126L34.6835 31.52L33.4592 28.9546C33.5213 28.9195 33.5826 28.8822 33.6417 28.8402C33.8209 28.7128 34.0403 28.6538 34.2588 28.6748C34.8986 28.7352 35.5146 28.4967 35.9471 28.0554L37.0444 30.3547L36.0026 30.1872ZM39.8273 27.2153C39.8273 27.4662 39.6232 27.6703 39.3723 27.6703H37.0627L36.7603 27.0367C36.7755 27.0287 36.7907 27.0202 36.8065 27.013C37.614 26.6434 38.1003 25.8011 38.0166 24.917C37.9959 24.6983 38.0546 24.4791 38.182 24.3C38.6965 23.5762 38.6965 22.6035 38.1819 21.8797C38.0546 21.7006 37.9959 21.4816 38.0166 21.2627C38.1003 20.3787 37.614 19.5363 36.8064 19.1667C36.6066 19.0752 36.4462 18.9148 36.3548 18.7151C35.9852 17.9075 35.1425 17.4213 34.2587 17.5049C34.0398 17.5258 33.8208 17.467 33.6417 17.3396C32.9179 16.8251 31.9452 16.825 31.2214 17.3396C31.0423 17.467 30.8227 17.5258 30.6045 17.5048C29.7193 17.4216 28.8779 17.9075 28.5084 18.715C28.417 18.9148 28.2566 19.0752 28.0567 19.1666C27.2492 19.5363 26.7629 20.3785 26.8466 21.2627C26.8673 21.4815 26.8086 21.7005 26.6812 21.8797C26.1667 22.6035 26.1667 23.5762 26.6812 24.2999C26.8086 24.479 26.8673 24.6981 26.8466 24.917C26.7629 25.8011 27.2492 26.6434 28.0567 27.013C28.0725 27.0202 28.0876 27.0286 28.1028 27.0366L27.8005 27.6703H2.62773C2.37687 27.6703 2.17273 27.4663 2.17273 27.2153V2.41289C2.17273 2.16203 2.3768 1.95789 2.62773 1.95789H39.3723C39.6231 1.95789 39.8273 2.16203 39.8273 2.41289V27.2153Z"/>
</mask>
<path d="M39.3723 0.785156H2.62773C1.73023 0.785156 1 1.51539 1 2.41289V27.2152C1 28.1128 1.73023 28.843 2.62773 28.843H27.2409L26.3695 30.669C26.2575 30.9034 26.2848 31.1784 26.4404 31.3863C26.5961 31.5944 26.8523 31.6977 27.1086 31.6567L28.7309 31.3959L29.6359 32.8813C29.7627 33.0898 29.9882 33.2155 30.2305 33.2155C30.2423 33.2155 30.2541 33.2152 30.266 33.2146C30.5216 33.2016 30.7489 33.0501 30.8593 32.819L32.4316 29.5242L34.0038 32.8188C34.114 33.0498 34.3412 33.2016 34.597 33.2147C34.6089 33.2153 34.6209 33.2156 34.6328 33.2156C34.8751 33.2156 35.1005 33.0898 35.2274 32.8815L36.1323 31.3961L37.7547 31.657C38.0118 31.698 38.2675 31.5944 38.423 31.3863C38.5787 31.1781 38.6057 30.9033 38.4938 30.6692L37.6223 28.8432H39.3723C40.2698 28.8432 41 28.113 41 27.2155V2.41289C41 1.51539 40.2698 0.785156 39.3723 0.785156ZM30.1798 31.5199L29.5659 30.5125C29.4181 30.2698 29.1414 30.1422 28.8606 30.1873L27.8189 30.3548L28.9163 28.0554C29.3488 28.4967 29.9649 28.7352 30.6045 28.6749C30.8232 28.654 31.0424 28.7129 31.2216 28.8402C31.2806 28.8822 31.342 28.9195 31.4041 28.9546L30.1798 31.5199ZM32.5715 28.0427C32.5697 28.043 32.5679 28.0431 32.566 28.0434C32.4771 28.0566 32.3867 28.0566 32.2978 28.0435C32.2955 28.0432 32.2933 28.043 32.2911 28.0427C32.1534 28.0213 32.0195 27.9686 31.9009 27.8843C31.5462 27.6321 31.1227 27.498 30.6906 27.498C30.6252 27.498 30.5595 27.5012 30.4939 27.5073C30.1057 27.544 29.7369 27.3308 29.5748 26.9767C29.5029 26.8195 29.4111 26.6741 29.3045 26.541C29.2998 26.5344 29.2947 26.5281 29.2898 26.5217C29.2838 26.5145 29.2783 26.5071 29.2723 26.5C29.2655 26.492 29.2584 26.4845 29.2512 26.4769C29.0573 26.2538 28.8177 26.0716 28.5448 25.9467C28.1906 25.7847 27.9774 25.4153 28.0141 25.0276C28.0613 24.5287 27.9275 24.029 27.6372 23.6206C27.4115 23.3032 27.4115 22.8767 27.6371 22.5593C27.9275 22.1509 28.0613 21.6513 28.0141 21.1523C27.9774 20.7646 28.1907 20.3952 28.5448 20.2332C29.0005 20.0247 29.3662 19.6589 29.5748 19.2032C29.7369 18.8491 30.107 18.6358 30.4939 18.6726C30.9934 18.7197 31.4926 18.5859 31.9009 18.2955C32.2184 18.0699 32.6449 18.0699 32.9623 18.2955C33.3707 18.5859 33.87 18.7194 34.3693 18.6726C34.7573 18.6357 35.1265 18.8491 35.2885 19.2032C35.497 19.6589 35.8628 20.0247 36.3184 20.2331C36.6726 20.3952 36.8859 20.7646 36.8491 21.1523C36.802 21.6513 36.9358 22.1509 37.2261 22.5592C37.4518 22.8766 37.4518 23.3031 37.2261 23.6205C36.9358 24.029 36.802 24.5287 36.8491 25.0275C36.8859 25.4152 36.6726 25.7846 36.3184 25.9467C36.0461 26.0713 35.807 26.253 35.6134 26.4755C35.6054 26.4838 35.5976 26.4921 35.5902 26.5008C35.5852 26.5069 35.5804 26.5132 35.5753 26.5194C35.5695 26.5269 35.5635 26.5342 35.558 26.542C35.4518 26.6748 35.3602 26.8199 35.2885 26.9767C35.1264 27.3308 34.757 27.5441 34.3693 27.5073C33.8709 27.4604 33.3709 27.594 32.9623 27.8843C32.8435 27.9687 32.7095 28.0215 32.5715 28.0427ZM36.0026 30.1872C35.7217 30.1423 35.4452 30.2698 35.2973 30.5126L34.6835 31.52L33.4592 28.9546C33.5213 28.9195 33.5826 28.8822 33.6417 28.8402C33.8209 28.7128 34.0403 28.6538 34.2588 28.6748C34.8986 28.7352 35.5146 28.4967 35.9471 28.0554L37.0444 30.3547L36.0026 30.1872ZM39.8273 27.2153C39.8273 27.4662 39.6232 27.6703 39.3723 27.6703H37.0627L36.7603 27.0367C36.7755 27.0287 36.7907 27.0202 36.8065 27.013C37.614 26.6434 38.1003 25.8011 38.0166 24.917C37.9959 24.6983 38.0546 24.4791 38.182 24.3C38.6965 23.5762 38.6965 22.6035 38.1819 21.8797C38.0546 21.7006 37.9959 21.4816 38.0166 21.2627C38.1003 20.3787 37.614 19.5363 36.8064 19.1667C36.6066 19.0752 36.4462 18.9148 36.3548 18.7151C35.9852 17.9075 35.1425 17.4213 34.2587 17.5049C34.0398 17.5258 33.8208 17.467 33.6417 17.3396C32.9179 16.8251 31.9452 16.825 31.2214 17.3396C31.0423 17.467 30.8227 17.5258 30.6045 17.5048C29.7193 17.4216 28.8779 17.9075 28.5084 18.715C28.417 18.9148 28.2566 19.0752 28.0567 19.1666C27.2492 19.5363 26.7629 20.3785 26.8466 21.2627C26.8673 21.4815 26.8086 21.7005 26.6812 21.8797C26.1667 22.6035 26.1667 23.5762 26.6812 24.2999C26.8086 24.479 26.8673 24.6981 26.8466 24.917C26.7629 25.8011 27.2492 26.6434 28.0567 27.013C28.0725 27.0202 28.0876 27.0286 28.1028 27.0366L27.8005 27.6703H2.62773C2.37687 27.6703 2.17273 27.4663 2.17273 27.2153V2.41289C2.17273 2.16203 2.3768 1.95789 2.62773 1.95789H39.3723C39.6231 1.95789 39.8273 2.16203 39.8273 2.41289V27.2153Z" fill="#5266B2"/>
<path d="M39.3723 0.785156H2.62773C1.73023 0.785156 1 1.51539 1 2.41289V27.2152C1 28.1128 1.73023 28.843 2.62773 28.843H27.2409L26.3695 30.669C26.2575 30.9034 26.2848 31.1784 26.4404 31.3863C26.5961 31.5944 26.8523 31.6977 27.1086 31.6567L28.7309 31.3959L29.6359 32.8813C29.7627 33.0898 29.9882 33.2155 30.2305 33.2155C30.2423 33.2155 30.2541 33.2152 30.266 33.2146C30.5216 33.2016 30.7489 33.0501 30.8593 32.819L32.4316 29.5242L34.0038 32.8188C34.114 33.0498 34.3412 33.2016 34.597 33.2147C34.6089 33.2153 34.6209 33.2156 34.6328 33.2156C34.8751 33.2156 35.1005 33.0898 35.2274 32.8815L36.1323 31.3961L37.7547 31.657C38.0118 31.698 38.2675 31.5944 38.423 31.3863C38.5787 31.1781 38.6057 30.9033 38.4938 30.6692L37.6223 28.8432H39.3723C40.2698 28.8432 41 28.113 41 27.2155V2.41289C41 1.51539 40.2698 0.785156 39.3723 0.785156ZM30.1798 31.5199L29.5659 30.5125C29.4181 30.2698 29.1414 30.1422 28.8606 30.1873L27.8189 30.3548L28.9163 28.0554C29.3488 28.4967 29.9649 28.7352 30.6045 28.6749C30.8232 28.654 31.0424 28.7129 31.2216 28.8402C31.2806 28.8822 31.342 28.9195 31.4041 28.9546L30.1798 31.5199ZM32.5715 28.0427C32.5697 28.043 32.5679 28.0431 32.566 28.0434C32.4771 28.0566 32.3867 28.0566 32.2978 28.0435C32.2955 28.0432 32.2933 28.043 32.2911 28.0427C32.1534 28.0213 32.0195 27.9686 31.9009 27.8843C31.5462 27.6321 31.1227 27.498 30.6906 27.498C30.6252 27.498 30.5595 27.5012 30.4939 27.5073C30.1057 27.544 29.7369 27.3308 29.5748 26.9767C29.5029 26.8195 29.4111 26.6741 29.3045 26.541C29.2998 26.5344 29.2947 26.5281 29.2898 26.5217C29.2838 26.5145 29.2783 26.5071 29.2723 26.5C29.2655 26.492 29.2584 26.4845 29.2512 26.4769C29.0573 26.2538 28.8177 26.0716 28.5448 25.9467C28.1906 25.7847 27.9774 25.4153 28.0141 25.0276C28.0613 24.5287 27.9275 24.029 27.6372 23.6206C27.4115 23.3032 27.4115 22.8767 27.6371 22.5593C27.9275 22.1509 28.0613 21.6513 28.0141 21.1523C27.9774 20.7646 28.1907 20.3952 28.5448 20.2332C29.0005 20.0247 29.3662 19.6589 29.5748 19.2032C29.7369 18.8491 30.107 18.6358 30.4939 18.6726C30.9934 18.7197 31.4926 18.5859 31.9009 18.2955C32.2184 18.0699 32.6449 18.0699 32.9623 18.2955C33.3707 18.5859 33.87 18.7194 34.3693 18.6726C34.7573 18.6357 35.1265 18.8491 35.2885 19.2032C35.497 19.6589 35.8628 20.0247 36.3184 20.2331C36.6726 20.3952 36.8859 20.7646 36.8491 21.1523C36.802 21.6513 36.9358 22.1509 37.2261 22.5592C37.4518 22.8766 37.4518 23.3031 37.2261 23.6205C36.9358 24.029 36.802 24.5287 36.8491 25.0275C36.8859 25.4152 36.6726 25.7846 36.3184 25.9467C36.0461 26.0713 35.807 26.253 35.6134 26.4755C35.6054 26.4838 35.5976 26.4921 35.5902 26.5008C35.5852 26.5069 35.5804 26.5132 35.5753 26.5194C35.5695 26.5269 35.5635 26.5342 35.558 26.542C35.4518 26.6748 35.3602 26.8199 35.2885 26.9767C35.1264 27.3308 34.757 27.5441 34.3693 27.5073C33.8709 27.4604 33.3709 27.594 32.9623 27.8843C32.8435 27.9687 32.7095 28.0215 32.5715 28.0427ZM36.0026 30.1872C35.7217 30.1423 35.4452 30.2698 35.2973 30.5126L34.6835 31.52L33.4592 28.9546C33.5213 28.9195 33.5826 28.8822 33.6417 28.8402C33.8209 28.7128 34.0403 28.6538 34.2588 28.6748C34.8986 28.7352 35.5146 28.4967 35.9471 28.0554L37.0444 30.3547L36.0026 30.1872ZM39.8273 27.2153C39.8273 27.4662 39.6232 27.6703 39.3723 27.6703H37.0627L36.7603 27.0367C36.7755 27.0287 36.7907 27.0202 36.8065 27.013C37.614 26.6434 38.1003 25.8011 38.0166 24.917C37.9959 24.6983 38.0546 24.4791 38.182 24.3C38.6965 23.5762 38.6965 22.6035 38.1819 21.8797C38.0546 21.7006 37.9959 21.4816 38.0166 21.2627C38.1003 20.3787 37.614 19.5363 36.8064 19.1667C36.6066 19.0752 36.4462 18.9148 36.3548 18.7151C35.9852 17.9075 35.1425 17.4213 34.2587 17.5049C34.0398 17.5258 33.8208 17.467 33.6417 17.3396C32.9179 16.8251 31.9452 16.825 31.2214 17.3396C31.0423 17.467 30.8227 17.5258 30.6045 17.5048C29.7193 17.4216 28.8779 17.9075 28.5084 18.715C28.417 18.9148 28.2566 19.0752 28.0567 19.1666C27.2492 19.5363 26.7629 20.3785 26.8466 21.2627C26.8673 21.4815 26.8086 21.7005 26.6812 21.8797C26.1667 22.6035 26.1667 23.5762 26.6812 24.2999C26.8086 24.479 26.8673 24.6981 26.8466 24.917C26.7629 25.8011 27.2492 26.6434 28.0567 27.013C28.0725 27.0202 28.0876 27.0286 28.1028 27.0366L27.8005 27.6703H2.62773C2.37687 27.6703 2.17273 27.4663 2.17273 27.2153V2.41289C2.17273 2.16203 2.3768 1.95789 2.62773 1.95789H39.3723C39.6231 1.95789 39.8273 2.16203 39.8273 2.41289V27.2153Z" stroke="#5266B2" stroke-width="0.2" mask="url(#path-9-outside-1)"/>
<circle cx="32" cy="23" r="3" fill="#EB5757"/>
<path d="M32.3889 19.3963C30.3524 19.3963 28.6956 21.053 28.6956 23.0895C28.6956 25.126 30.3524 26.7828 32.3889 26.7828C34.4254 26.7828 36.0821 25.1259 36.0821 23.0895C36.0821 21.053 34.4254 19.3963 32.3889 19.3963ZM32.3889 25.51C31.0542 25.51 29.9683 24.4241 29.9683 23.0894C29.9683 21.7548 31.0542 20.6689 32.3889 20.6689C33.7235 20.6689 34.8094 21.7548 34.8094 23.0894C34.8094 24.4241 33.7235 25.51 32.3889 25.51Z" fill="#5266B2" stroke="#5266B2" stroke-width="0.1"/>
</svg>
