<svg width="43" height="40" viewBox="0 0 43 40" fill="none" xmlns="http://www.w3.org/2000/svg">
<path d="M26.5 2.00007C37 6.50028 37.5 17 35 23.0001C32 23.0001 26.5 19.5 26.5 19.5L21.5 13.0001L21 15L22 19H19.5L14.5 16L11.5 12L10.5 16L7.5 19L3.5 20.5V13.0001C5.5 5.00001 16 -2.50014 26.5 2.00007Z" fill="#FFE288"/>
<path d="M2 30.5L6 27.5L7 31.5L5.5 36L1.5 39L0.5 35L2 30.5Z" fill="#FFE288"/>
<path d="M33.182 32.6569L33.8891 27.7071L37.4246 29.8284L39.5459 34.0711L38.8388 39.0208L35.3033 36.8995L33.182 32.6569Z" fill="#FFE288"/>
<path d="M14.097 24.5696C13.74 24.2185 13.2652 24.0253 12.7604 24.0253C12.2557 24.0253 11.781 24.2185 11.4236 24.5696L11.4235 24.5696C11.1389 24.8496 10.6769 24.8497 10.392 24.5696C10.1076 24.29 10.1076 23.837 10.3921 23.5575L10.3921 23.5575C11.0245 22.9357 11.8655 22.5932 12.7603 22.5932C13.6552 22.5932 14.4962 22.9356 15.1286 23.5575L15.1565 23.5292L15.1286 23.5575C15.4131 23.837 15.4131 24.29 15.1286 24.5696L15.1285 24.5696C14.9863 24.7095 14.7997 24.7796 14.6128 24.7796C14.4259 24.7796 14.2394 24.7096 14.097 24.5696ZM14.097 24.5696L14.0689 24.5981L14.097 24.5696C14.097 24.5696 14.097 24.5696 14.097 24.5696Z" fill="#5266B2" stroke="#FDFDFD" stroke-width="0.08"/>
<path d="M28.576 24.5696C28.2191 24.2185 27.7441 24.0253 27.2395 24.0253C26.7348 24.0253 26.26 24.2186 25.9028 24.5696L25.9028 24.5696C25.6181 24.8496 25.1561 24.8497 24.8712 24.5696C24.5868 24.29 24.5868 23.837 24.8713 23.5575L24.8713 23.5575C25.5038 22.9357 26.3448 22.5932 27.2396 22.5932C28.1345 22.5932 28.9753 22.9356 29.6077 23.5575L29.6077 23.5575C29.8921 23.837 29.8921 24.29 29.6076 24.5696L29.6076 24.5696C29.4654 24.7095 29.2787 24.7796 29.0919 24.7796C28.9049 24.7796 28.7184 24.7096 28.576 24.5696ZM28.576 24.5696L28.548 24.5981M28.576 24.5696C28.576 24.5696 28.576 24.5696 28.576 24.5696L28.548 24.5981M28.548 24.5981C28.1986 24.2545 27.7337 24.0653 27.2395 24.0653C26.7452 24.0653 26.2805 24.2546 25.9308 24.5981H29.6356C29.4856 24.7458 29.2887 24.8196 29.0919 24.8196C28.895 24.8196 28.6982 24.7458 28.548 24.5981Z" fill="#5266B2" stroke="#FDFDFD" stroke-width="0.08"/>
<path d="M34.5955 22.1186L34.6317 22.1355L34.6317 22.1355L34.6318 22.1353L34.6321 22.1347L34.6332 22.1324L34.6374 22.1234L34.6534 22.0888C34.6593 22.0759 34.6664 22.0605 34.6744 22.0429C34.6851 22.0196 34.6975 21.9925 34.7112 21.962C34.7596 21.8552 34.8253 21.7079 34.8945 21.5463C35.0324 21.2244 35.1858 20.8421 35.2432 20.6095C35.2433 20.6093 35.2433 20.609 35.2434 20.6088L34.5955 22.1186ZM34.5955 22.1186L34.6317 22.1355M34.5955 22.1186L34.6317 22.1355M34.6186 22.1635L34.5882 22.1579C30.8404 21.4648 27.6824 19.6805 25.1963 16.8495C23.2352 14.6163 22.4491 12.5312 22.4408 12.509L22.4408 12.5088C22.3396 12.2331 22.0772 12.0453 21.7782 12.0358C21.4759 12.0278 21.2049 12.1975 21.0859 12.4662C21.0295 12.5938 19.862 15.3077 21.0652 18.2682L21.0914 18.3326L21.0226 18.3229C18.7499 18.0011 16.631 16.8332 14.7079 14.8428C12.9577 13.0311 12.0384 11.1848 12.0288 11.1655L12.0288 11.1653C11.865 10.8308 11.4634 10.6688 11.0982 10.8116C10.8196 10.9207 10.6429 11.1973 10.6424 11.494C10.6351 16.2954 7.73423 18.1861 6.67459 18.7162C6.64572 18.7306 6.597 18.7483 6.53544 18.7684C6.47308 18.7887 6.39502 18.8124 6.30591 18.8389C6.25158 18.855 6.1931 18.8722 6.13143 18.8903C5.99038 18.9317 5.8326 18.9781 5.66933 19.0281C5.19851 19.1725 4.6903 19.3456 4.4171 19.5154L4.36631 19.547L4.35651 19.488C4.21887 18.6589 4.14792 17.8168 4.14792 16.9712C4.14821 8.42426 11.2215 1.47216 19.9143 1.47216C28.6068 1.47216 35.6797 8.42426 35.6797 16.9711C35.6797 18.1977 35.5334 19.4193 35.2453 20.6011L34.6186 22.1635ZM34.6186 22.1635L34.6317 22.1355M34.6186 22.1635L34.6317 22.1355M34.455 26.6411L34.3594 26.6655L34.445 26.7146C35.486 27.3116 38.1385 29.0611 39.3096 31.9505C40.0305 33.7288 40.042 35.5733 39.8651 36.9949C39.6881 38.4163 39.3231 39.4121 39.2935 39.4911C39.2222 39.6816 39.0715 39.8338 38.8792 39.9091L38.8792 39.9091C38.7924 39.9431 38.7006 39.96 38.6091 39.96C38.4979 39.96 38.3871 39.935 38.2853 39.8855C38.2085 39.8481 37.2468 39.3719 36.1239 38.4595C35.0007 37.547 33.7187 36.2 32.9979 34.4217C32.7406 33.7866 32.5739 33.1431 32.4737 32.5133L32.4557 32.4002L32.3993 32.4999C31.8994 33.3849 31.2999 34.2201 30.6057 34.9884C27.9151 37.9666 24.0493 39.6749 19.9999 39.6749C15.9504 39.6749 12.0846 37.9666 9.39398 34.9883L9.3643 35.0151L9.39398 34.9883C8.69989 34.2201 8.10042 33.385 7.60047 32.5L7.54414 32.4003L7.52614 32.5134C7.42589 33.1432 7.25934 33.7867 7.00189 34.4217L7.03896 34.4367L7.00189 34.4217C6.2811 36.1999 4.99905 37.5469 3.87592 38.4594C2.75302 39.3718 1.7913 39.848 1.71452 39.8854L1.73202 39.9214L1.71449 39.8854C1.61285 39.935 1.50195 39.9599 1.39071 39.9599C1.29909 39.9599 1.20743 39.943 1.12064 39.909L1.12061 39.909C0.928267 39.8337 0.777661 39.6815 0.706334 39.491C0.676803 39.4121 0.311814 38.4163 0.134906 36.9949C-0.0420332 35.5733 -0.0304643 33.7288 0.690361 31.9506C1.86135 29.0615 4.51343 27.3119 5.5546 26.7149L5.64017 26.6658L5.54459 26.6414C3.8239 26.2025 2.5504 24.6631 2.5504 22.8376C2.5504 22.0963 2.76049 21.4025 3.12499 20.8102L3.13362 20.7961L3.12987 20.7801C2.83905 19.5365 2.68991 18.2571 2.68991 16.9711C2.68991 7.63596 10.4162 0.04 19.9143 0.04C29.4121 0.04 37.138 7.63596 37.1379 16.971C37.1379 18.1891 37.0042 19.4027 36.7431 20.5848L36.7393 20.6019L36.7494 20.6163C37.2027 21.2665 37.4494 22.0416 37.4494 22.8372C37.4494 24.6628 36.1758 26.2023 34.455 26.6411ZM34.1806 25.175V25.2298L34.9026 23.7049L34.9087 23.6654C34.9087 23.6654 34.9086 23.6654 34.9086 23.6654C34.6779 23.6298 34.452 23.5892 34.2281 23.5465L34.1806 23.5374V23.5857V25.175ZM5.81939 20.4997V20.445L5.76724 20.4616C4.74839 20.7863 4.0087 21.728 4.0087 22.8375C4.0087 23.9471 4.74839 24.8887 5.76724 25.2133L5.81939 25.2299V25.1752V20.4997ZM1.81877 38.1012L1.83187 38.1564L1.87944 38.1255C2.94726 37.4332 4.79475 35.9947 5.64705 33.8919C6.4992 31.7894 6.16454 29.4961 5.87349 28.271L5.86038 28.2158L5.81281 28.2467C4.7449 28.939 2.89741 30.3775 2.0452 32.4801C1.19296 34.5828 1.52772 36.8761 1.81877 38.1012ZM7.29978 20.0065L7.27769 20.0176V20.0423V25.735C7.27769 28.8004 8.41677 31.749 10.4849 34.0377C12.8992 36.7102 16.3674 38.2427 20 38.2427C23.6326 38.2427 27.1007 36.7102 29.515 34.0378C31.5832 31.7491 32.7223 28.8004 32.7224 25.735V23.2257V23.1953L32.6932 23.1871C28.5123 22.0208 25.7239 19.6562 24.0492 17.7357C23.1848 16.7445 22.5351 15.7876 22.0665 14.996L22.0004 14.8843L21.9922 15.0138C21.9253 16.0681 22.088 17.4193 22.9471 18.7464L22.9807 18.7246L22.9471 18.7464C23.0899 18.9668 23.0991 19.246 22.9711 19.4749C22.8431 19.7039 22.5983 19.8466 22.3318 19.8466C19.1794 19.8466 16.166 18.447 13.6176 15.7945C12.9443 15.0938 12.3881 14.3953 11.9488 13.7819L11.8953 13.7073L11.877 13.7973C11.4296 16.0057 10.3904 17.4871 9.48388 18.4061C8.65279 19.2489 7.81495 19.7487 7.29978 20.0065ZM38.1201 38.1276L38.1677 38.1583L38.1808 38.1033C38.4719 36.8792 38.8076 34.5843 37.9548 32.4801C37.1026 30.3777 35.2554 28.9392 34.1871 28.2467L34.1395 28.2158L34.1264 28.271C33.8355 29.4956 33.5007 31.7892 34.353 33.8919C35.2093 36.0046 37.0535 37.4386 38.1201 38.1276Z" fill="#5266B2" stroke="#FDFDFD" stroke-width="0.08"/>
<path d="M16.6991 29.1642V29.1961V30.803V30.8507L16.6522 30.8424C16.1097 30.7468 15.5711 30.6277 15.0384 30.4851L15.0087 30.4772V30.4465V28.7602V28.7132L15.0551 28.7207L16.6991 29.1642ZM16.6991 29.1642L16.6681 29.1571M16.6991 29.1642L16.6681 29.1571M16.6681 29.1571C16.2297 29.0566 15.7957 28.9368 15.368 28.7961L16.6681 29.1571ZM11.5013 31.9503L11.5013 31.9503C11.1315 31.0387 11.1875 30.0185 11.6548 29.1509L11.7161 29.037C11.7161 29.037 11.7161 29.037 11.7161 29.037C12.4987 27.5842 14.2286 26.9109 15.8312 27.4381C18.5197 28.3226 21.4807 28.3225 24.1688 27.4381C25.7711 26.911 27.5014 27.5841 28.2839 29.0369L28.3454 29.151C28.8125 30.0184 28.8685 31.0387 28.4987 31.9503C28.1268 32.8674 27.366 33.575 26.4112 33.8913C24.3441 34.576 22.1721 34.9184 20 34.9184C17.8279 34.9184 15.6558 34.576 13.5887 33.8913C12.634 33.575 11.8733 32.8674 11.5013 31.9503ZM26.8999 29.605L26.9217 29.5819L26.9041 29.5554C26.7068 29.2582 26.4341 29.0302 26.1223 28.8832L26.0652 28.8563V28.9194V30.0934V30.1521L26.1199 30.1306C26.4193 30.013 26.6839 29.8343 26.8999 29.605ZM24.962 32.8292L24.9915 32.8212V32.7906V31.6188V31.5675L24.9418 31.58C24.4106 31.7132 23.8744 31.8246 23.3346 31.9141L23.3011 31.9197V31.9536V33.1517V33.1995L23.3481 33.1911C23.8909 33.0944 24.4294 32.9734 24.962 32.8292ZM15.0584 31.58L15.0087 31.5676V31.6188V32.7906V32.8212L15.0382 32.8292C15.5708 32.9735 16.1093 33.0945 16.6521 33.1912L16.6991 33.1995V33.1518V31.9537V31.9198L16.6656 31.9142C16.1258 31.8248 15.5896 31.7133 15.0584 31.58ZM17.8171 32.0712L17.7728 32.0664V32.111V33.3207V33.3563L17.8083 33.3604C18.3442 33.4223 18.8828 33.4609 19.422 33.4772L19.4632 33.4784V33.4372V32.2198V32.1809L19.4244 32.1798C18.8875 32.1648 18.3512 32.1285 17.8171 32.0712ZM20.5754 29.522L20.537 29.5234V29.5619V31.0856V31.1268L20.5782 31.1256C21.1174 31.1095 21.6558 31.0712 22.1919 31.01L22.2274 31.0059V30.9702V29.4126V29.3663L22.1816 29.373C21.6493 29.4513 21.113 29.5013 20.5754 29.522ZM19.4221 31.1256L19.4632 31.1268V31.0856V29.5619V29.5234L19.4248 29.522C18.8873 29.5014 18.351 29.4514 17.8187 29.373L17.7728 29.3663V29.4126V30.9702V31.0059L17.8083 31.01C18.3444 31.0712 18.8828 31.1095 19.4221 31.1256ZM20.5758 32.1798L20.537 32.1809V32.2198V33.4371V33.4783L20.5782 33.4771C21.1174 33.4609 21.656 33.4222 22.192 33.3603L22.2274 33.3562V33.3206V32.1109V32.0663L22.1831 32.0711C21.649 32.1285 21.1127 32.1648 20.5758 32.1798ZM24.9915 28.7602V28.7132L24.9451 28.7207C24.8407 28.7377 24.7361 28.7619 24.6321 28.7961C24.2045 28.9367 23.7705 29.0566 23.3322 29.1571L23.3011 29.1642V29.1961V30.803V30.8507L23.348 30.8424C23.8906 30.7468 24.4291 30.6277 24.9619 30.4851L24.9915 30.4772V30.4465V28.7602ZM13.935 28.9192V28.8561L13.8779 28.883C13.5658 29.0301 13.2929 29.2583 13.0956 29.5559L13.078 29.5823L13.0998 29.6054C13.3159 29.835 13.5807 30.0137 13.8804 30.1309L13.935 30.1522V30.0936V28.9192ZM12.7825 30.7329L12.7171 30.6864L12.7193 30.7667C12.7256 30.9881 12.7706 31.2094 12.8562 31.4204L12.8933 31.4053L12.8562 31.4204C13.0463 31.8889 13.414 32.261 13.8789 32.4652L13.935 32.4899V32.4286V31.292V31.2628L13.9071 31.2539C13.8876 31.2477 13.8682 31.2416 13.8489 31.2355C13.7824 31.2145 13.7162 31.1936 13.6502 31.1717L13.6502 31.1717C13.3358 31.0678 13.0447 30.9194 12.7825 30.7329ZM26.0652 32.4287V32.49L26.1213 32.4653C26.5862 32.2609 26.954 31.889 27.144 31.4204C27.2298 31.2091 27.2748 30.9875 27.281 30.7658L27.2832 30.6855L27.2178 30.7321C26.9558 30.9186 26.6646 31.0673 26.3504 31.1717C26.2811 31.1946 26.2116 31.2165 26.1417 31.2386C26.1255 31.2437 26.1094 31.2488 26.0932 31.2539L26.0652 31.2627V31.292V32.4287Z" fill="#5266B2" stroke="#FDFDFD" stroke-width="0.08"/>
<ellipse cx="10" cy="27.5" rx="2" ry="1.5" fill="#FFC4C4"/>
<ellipse cx="30" cy="27.5" rx="2" ry="1.5" fill="#FFC4C4"/>
</svg>
