<svg width="36" height="42" viewBox="0 0 36 42" fill="none" xmlns="http://www.w3.org/2000/svg">
<path d="M12 23.5L9.5 18L11 13H25L26.5 17.5L23 24.5L17.5 26L12 23.5Z" fill="#FFEBE2"/>
<path d="M19.3333 31H16.6667L16 41H20L19.3333 31Z" fill="#F2C94C"/>
<path d="M26 26.5L21.5 40H25.5L29.5 33.5L27.5 31.5L29 30.5L26 26.5Z" fill="#D1CBFA"/>
<path d="M7 30L9.5 27L14.5 40L11 40.5L7 33.5L8 31.5L7 30Z" fill="#D1CBFA"/>
<path d="M34.9317 39.1063C34.9331 39.1005 34.9344 39.0947 34.9358 39.0888C34.9427 39.059 34.9493 39.0292 34.955 38.9991C34.9572 38.9882 34.959 38.9772 34.961 38.9662C34.9656 38.9401 34.9702 38.914 34.974 38.8877C34.9764 38.8716 34.9782 38.8554 34.9803 38.8392C34.983 38.8171 34.986 38.795 34.9882 38.7727C34.9904 38.7503 34.9918 38.7276 34.9934 38.7049C34.9946 38.6881 34.9961 38.6714 34.9969 38.6545C34.9989 38.6144 35 38.5741 35 38.5335V34.3719C35 33.3409 34.7233 32.288 34.2432 31.3131C34.156 31.1358 34.062 30.9611 33.9617 30.7896C33.8614 30.6182 33.7548 30.4498 33.6424 30.2853C33.53 30.1207 33.4117 29.9599 33.288 29.8035C33.2262 29.7252 33.163 29.6481 33.0985 29.5722C32.1958 28.5089 31.0394 27.6746 29.7801 27.2747L28.5334 26.8788L26.6885 26.2928L26.6601 26.2588C26.66 26.2586 26.6599 26.2585 26.6597 26.2584C26.648 26.2444 26.6356 26.2308 26.6226 26.2178L25.1527 24.759C24.9192 24.5273 24.6139 24.4088 24.3065 24.4042C24.2898 24.2314 24.2776 24.0505 24.271 23.8614C24.2693 23.8094 24.268 23.7559 24.2669 23.7019C25.8692 21.8872 26.8688 19.4302 27.2515 16.961C27.3484 16.8655 27.4109 16.7389 27.4243 16.6007L27.7343 13.3765C27.9262 13.2794 28.058 13.0819 28.058 12.8534V3.83513C28.058 3.61435 27.9332 3.41219 27.7349 3.3119C21.6393 0.229366 14.3609 0.229366 8.26508 3.3119C8.06684 3.41212 7.94204 3.61427 7.94204 3.83513V12.8537C7.94204 13.0821 8.07378 13.2796 8.26571 13.3767L8.57573 16.6009C8.58906 16.7392 8.65162 16.8658 8.74849 16.9613C9.13101 19.429 10.1295 21.8845 11.7301 23.6988C11.7241 23.9502 11.7102 24.1841 11.6877 24.4042C11.3823 24.4103 11.0793 24.529 10.8473 24.7591L9.37745 26.218C9.36428 26.231 9.35197 26.2446 9.3403 26.2585C9.34022 26.2586 9.34006 26.2588 9.3399 26.2589L9.3115 26.293L6.2198 27.2748C3.34157 28.1888 1 31.3726 1 34.372V38.5336C1 38.5742 1.0011 38.6145 1.00308 38.6546C1.00394 38.6715 1.00552 38.6882 1.00663 38.705C1.0082 38.7277 1.00962 38.7503 1.01183 38.7728C1.01404 38.7951 1.01696 38.8171 1.01972 38.8393C1.02177 38.8555 1.02359 38.8717 1.02595 38.8877C1.02982 38.914 1.03432 38.9402 1.03905 38.9663C1.04102 38.9772 1.04284 38.9883 1.04496 38.9992C1.0508 39.0293 1.05735 39.0591 1.06421 39.0889C1.06555 39.0947 1.0669 39.1005 1.06832 39.1063C1.07652 39.1406 1.08551 39.1744 1.09514 39.208C1.09514 39.2081 1.09522 39.2083 1.09529 39.2084C1.39183 40.2412 2.35045 40.9999 3.48491 40.9999H11.0573C11.0577 40.9999 11.0581 41 11.0586 41C11.059 41 11.0594 40.9999 11.0597 40.9999H16.7376C16.7378 40.9999 16.7381 40.9999 16.7383 40.9999C16.7385 40.9999 16.7385 40.9999 16.7387 40.9999H19.2613C19.2614 40.9999 19.2615 40.9999 19.2617 40.9999C19.2619 40.9999 19.2622 40.9999 19.2624 40.9999H24.9403C24.9407 40.9999 24.941 41 24.9414 41C24.9418 41 24.9422 40.9999 24.9427 40.9999H32.5151C33.6496 40.9999 34.6082 40.2413 34.9047 39.2084C34.9048 39.2083 34.9048 39.2081 34.9049 39.208C34.9145 39.1743 34.9235 39.1404 34.9317 39.1063ZM19.8238 39.8255L19.4728 33.1483C19.5535 33.072 19.6233 32.985 19.6807 32.8896L20.215 33.4198C20.4454 33.6485 20.756 33.7753 21.0791 33.7753C21.111 33.7753 21.1431 33.7741 21.1752 33.7716C21.5321 33.7438 21.8578 33.563 22.0684 33.2755L24.2007 30.3656L20.733 39.8255H19.8238ZM15.2672 39.8255L11.7995 30.3656L13.9318 33.2755C14.1424 33.563 14.468 33.7437 14.825 33.7716C14.8571 33.7741 14.8891 33.7753 14.9211 33.7753C15.2442 33.7753 15.5548 33.6486 15.7852 33.4198L16.3194 32.8896C16.3768 32.985 16.4467 33.0721 16.5274 33.1483L16.1763 39.8255H15.2672ZM9.12257 31.586C9.10514 31.411 9.00945 31.2529 8.86201 31.1553L7.56583 30.2977C7.56181 30.2951 7.551 30.2879 7.54864 30.2704C7.54627 30.2529 7.55479 30.2431 7.55803 30.2395C7.56134 30.2358 7.56449 30.232 7.56765 30.2282L9.5936 27.7973L13.9996 39.8032H11.3716L7.48403 33.6475C7.47346 33.6307 7.46202 33.6145 7.44971 33.5988C7.43749 33.5833 7.43891 33.561 7.45295 33.5471L8.95226 32.0591C9.07753 31.9347 9.14008 31.7611 9.12257 31.586ZM9.72423 16.1811L9.46075 13.4408H10.3201C10.1714 14.2722 10.0256 15.4732 9.9332 16.2958L9.72423 16.1811ZM10.1407 17.7519C10.2297 17.8008 10.3283 17.8253 10.427 17.8253C10.5213 17.8253 10.6156 17.803 10.7016 17.7583C10.8778 17.6667 10.9958 17.4933 11.0157 17.2969C11.132 16.1487 11.3504 14.3115 11.5211 13.441H24.479C24.6498 14.3115 24.868 16.1488 24.9844 17.2969C25.0043 17.4933 25.1223 17.6667 25.2984 17.7583C25.3845 17.803 25.4788 17.8253 25.5731 17.8253C25.6717 17.8253 25.7704 17.8008 25.8594 17.7519L25.9023 17.7283C25.0014 21.7256 22.3383 25.4196 18 25.4196C13.6617 25.4196 10.9986 21.7256 10.0977 17.7283L10.1407 17.7519ZM26.276 16.1811L26.067 16.2958C25.9747 15.4732 25.8289 14.2722 25.6801 13.4408H26.5395L26.276 16.1811ZM12.8364 24.7663C14.2247 25.897 15.9479 26.594 18.0002 26.594C20.0491 26.594 21.77 25.8992 23.1572 24.7717C23.1597 24.7919 23.1618 24.8127 23.1646 24.8326C23.1706 24.8768 23.1819 24.919 23.197 24.9593L18.0002 29.6013L12.7974 24.954C12.8111 24.9163 12.8215 24.8767 12.8274 24.8354C12.8305 24.8125 12.8333 24.7893 12.8364 24.7663ZM17.3691 32.3094C17.3488 32.3094 17.3296 32.2903 17.3296 32.2702V31.8871L18.0002 31.2216L18.6707 31.8871V32.2702C18.6707 32.2903 18.6515 32.3094 18.6312 32.3094H17.3691ZM17.6946 33.4838H18.3055L18.639 39.8255H17.3613L17.6946 33.4838ZM27.0481 32.0591L28.5474 33.5471C28.5614 33.561 28.5628 33.5833 28.5506 33.5988C28.5384 33.6145 28.5269 33.6307 28.5163 33.6475L24.6287 39.8032H22.0007L26.4067 27.7973L28.4327 30.2282C28.4358 30.2319 28.4391 30.2358 28.4423 30.2395C28.4455 30.2431 28.454 30.2529 28.4517 30.2704C28.4493 30.2879 28.4385 30.2951 28.4345 30.2977L27.1383 31.1553C26.9908 31.2529 26.8952 31.411 26.8777 31.586C26.8602 31.7611 26.9227 31.9347 27.0481 32.0591ZM33.8168 34.372V38.5336C33.8168 38.5756 33.8144 38.617 33.8104 38.658C33.8085 38.6773 33.8051 38.6962 33.8024 38.7153C33.7994 38.7359 33.7968 38.7564 33.7929 38.7766C33.7878 38.8026 33.7814 38.8281 33.7747 38.8535C33.7717 38.8652 33.769 38.877 33.7657 38.8885C33.7565 38.9197 33.7463 38.9504 33.7348 38.9805C33.7333 38.9846 33.7318 38.9887 33.7303 38.9928C33.5649 39.4164 33.1772 39.7356 32.6993 39.8032H26.0252L29.5056 34.2923C29.8606 33.8118 29.811 33.1404 29.384 32.7167L28.395 31.7352L29.0907 31.2749C29.3831 31.0813 29.5776 30.7722 29.6243 30.4264C29.6706 30.0836 29.5672 29.7373 29.3404 29.4749L28.086 27.9698L29.4195 28.3933C31.8031 29.1503 33.8168 31.8881 33.8168 34.372ZM25.4285 26.6936L21.1115 32.5847C21.1086 32.5887 21.1008 32.5994 21.0826 32.6008C21.0654 32.6024 21.0552 32.5929 21.0516 32.5894L18.8594 30.4136L24.2617 25.5881C24.2773 25.5741 24.3011 25.5748 24.3159 25.5895L25.4285 26.6936ZM9.12549 4.19849C14.7097 1.49888 21.2906 1.49896 26.8748 4.19849V12.2665H9.12549V4.19849ZM11.6842 25.5896C11.6991 25.5749 11.723 25.5742 11.7385 25.5882L17.1408 30.4137L14.9485 32.5895C14.9451 32.5929 14.9353 32.6025 14.9175 32.6008C14.8994 32.5994 14.8916 32.5888 14.8887 32.5848L10.5717 26.6936L11.6842 25.5896ZM2.18353 34.372C2.18353 31.8881 4.19717 29.1503 6.58071 28.3933L7.9142 27.9698L6.65975 29.475C6.43295 29.7374 6.32954 30.0836 6.37584 30.4265C6.42254 30.7722 6.61707 31.0814 6.9095 31.275L7.60512 31.7352L6.61605 32.7168C6.1892 33.1405 6.13958 33.8119 6.49456 34.2924L9.97493 39.8033H3.30095C2.82305 39.7357 2.43533 39.4165 2.26998 38.9929C2.26841 38.9888 2.26699 38.9847 2.26541 38.9806C2.25397 38.9504 2.24372 38.9198 2.23456 38.8886C2.23125 38.8771 2.22849 38.8653 2.22549 38.8536C2.21887 38.8282 2.2124 38.8026 2.20735 38.7766C2.20348 38.7565 2.2008 38.7359 2.19788 38.7154C2.19512 38.6963 2.19173 38.6774 2.18984 38.658C2.18589 38.6171 2.18345 38.5757 2.18345 38.5337V34.372H2.18353Z" fill="#5266B2" stroke="#5266B2" stroke-width="0.15"/>
<path d="M20.5246 6.62939H18.5919V4.71122C18.5919 4.38693 18.327 4.12402 18.0003 4.12402C17.6735 4.12402 17.4086 4.38693 17.4086 4.71122V6.62939H15.4759C15.1492 6.62939 14.8843 6.89229 14.8843 7.21658C14.8843 7.54087 15.1492 7.80378 15.4759 7.80378H17.4086V9.72194C17.4086 10.0462 17.6735 10.3091 18.0003 10.3091C18.327 10.3091 18.5919 10.0462 18.5919 9.72194V7.80378H20.5246C20.8514 7.80378 21.1163 7.54087 21.1163 7.21658C21.1163 6.89229 20.8514 6.62939 20.5246 6.62939Z" fill="#EB5757" stroke="#EB5757" stroke-width="0.15"/>
</svg>
