<svg width="45" height="40" viewBox="0 0 45 40" fill="none" xmlns="http://www.w3.org/2000/svg">
<path d="M34.5 20L38.5 24.5L30 32.5L26 28.5H22.5L20 27L17 30.5L20.5 29.5L21 32L17 34.5L13 36.5H9.5L7 39L1 33L3.5 30L4.5 24L9.5 19L6.5 15.5L6 13L7.5 11.5H9L7.5 9.5L8.5 7.5L9.5 6.5L8.8125 5.5L9.5 3L11.5 2.5L13.5 3.5L14 1.5L16.5 1L26.5 10L24 5.5L24.5 3.5L26.5 3L30.5 7.5L34 14L34.5 20Z" fill="#FFEBE2"/>
<mask id="path-2-inside-1" fill="white">
<path d="M44.7425 29.1353L35.3307 19.695L35.3348 16.7356C35.3379 14.4291 34.6636 12.1977 33.385 10.2823C33.382 10.2774 33.3789 10.273 33.3754 10.2685L28.5861 3.38369C28.1174 2.68565 27.4054 2.21731 26.5804 2.06488C25.7526 1.91175 24.9184 2.09695 24.2314 2.58564C23.0802 3.40472 22.6566 4.91322 23.1351 6.22479L17.8548 0.920572C16.6536 -0.286153 14.7097 -0.309605 13.5218 0.868496C13.1702 1.21682 12.9203 1.63274 12.7737 2.0766C11.616 1.34994 10.059 1.47548 9.039 2.46252C8.45707 3.0257 8.13229 3.79168 8.12473 4.61938C8.1189 5.21154 8.28232 5.79369 8.58444 6.29238C8.13812 6.4393 7.7203 6.6914 7.37011 7.04766C6.32195 8.11471 6.22925 9.7884 7.08 10.9934C6.65634 11.14 6.26015 11.3817 5.92506 11.718C5.34966 12.2963 5.03242 13.0651 5.03242 13.8828C5.03242 14.7005 5.34966 15.4692 5.92506 16.0476L8.65208 18.7869L5.23533 22.2188C3.55682 23.9053 2.63432 26.147 2.63741 28.5318L2.63947 29.7816L0.257492 32.1744C-0.0858307 32.5193 -0.0858307 33.0783 0.257492 33.4232L6.54716 39.7413C6.71883 39.9138 6.9437 40 7.16858 40C7.39346 40 7.61833 39.9138 7.78999 39.7413L10.172 37.3486L12.2968 37.3513H12.3098C14.0752 37.3513 15.7829 36.8295 17.2492 35.8418L20.9145 33.3725C21.4896 32.9852 21.8752 32.3955 22.0005 31.7116C22.1258 31.0273 21.9744 30.3383 21.5741 29.7706C21.1243 29.1329 20.4212 28.7649 19.6834 28.7111L19.8118 28.5821C21.1295 29.0905 22.5127 29.3481 23.9306 29.3481H23.9478L25.7231 29.3457L35.1271 38.7943C35.2987 38.9664 35.5236 39.053 35.7485 39.053C35.9734 39.053 36.1986 38.9664 36.3702 38.7943L44.7425 30.3838C44.9073 30.2182 45 29.9937 45 29.7596C45 29.5254 44.9073 29.3009 44.7425 29.1353ZM7.16824 14.7991C6.92448 14.5543 6.79058 14.229 6.79058 13.8828C6.79058 13.5369 6.92448 13.2117 7.16824 12.9668C7.63824 12.4947 8.39561 12.4626 8.90442 12.8892L11.7135 15.7113L9.89491 17.5381L7.16824 14.7991ZM20.1397 30.7914C20.2636 30.967 20.3106 31.1805 20.2718 31.3919C20.233 31.6036 20.1139 31.7861 19.9357 31.9061L16.2704 34.375C15.0945 35.1672 13.7254 35.5856 12.3098 35.5856H12.2992L9.80976 35.5821H9.80839C9.57527 35.5821 9.35177 35.6752 9.18697 35.8408L7.16858 37.8683L2.12173 32.799L4.14047 30.7711C4.30561 30.6052 4.39831 30.38 4.39796 30.1455L4.39556 28.529C4.39281 26.617 5.13268 24.8195 6.4785 23.4676L13.9011 16.0114C14.0429 15.8686 14.2318 15.79 14.4326 15.79C14.6334 15.79 14.8223 15.8686 14.9644 16.0114C15.236 16.2842 15.2562 16.7229 15.0149 17.0201L11.5051 20.5458C11.1621 20.8907 11.1621 21.4497 11.5051 21.7946C11.6768 21.9667 11.9016 22.0529 12.1268 22.0529C12.3517 22.0529 12.5766 21.9667 12.7483 21.7946L16.279 18.2476C16.2804 18.2462 16.2817 18.2448 16.2831 18.2434C16.2831 18.2434 16.2835 18.2431 16.2838 18.2431L17.3797 17.1419C17.6866 16.8339 18.1745 16.8194 18.4677 17.1098C18.7434 17.3833 18.765 17.824 18.5209 18.1237L13.8074 22.8586C13.4644 23.2031 13.4644 23.7621 13.8074 24.107C13.9791 24.2795 14.2039 24.3657 14.4288 24.3657C14.654 24.3657 14.8789 24.2795 15.0506 24.107L19.7908 19.3453C19.7943 19.3418 19.7974 19.3384 19.8008 19.335L20.769 18.3624C20.9211 18.21 21.1322 18.1265 21.3526 18.1255C21.5555 18.1272 21.7402 18.2044 21.8727 18.3427C22.1546 18.6366 22.1502 19.1111 21.8624 19.4001L20.8538 20.4134C20.8527 20.4144 20.8517 20.4155 20.8503 20.4168L16.1135 25.1751C15.7705 25.52 15.7705 26.079 16.1135 26.4239C16.2852 26.596 16.51 26.6822 16.7349 26.6822C16.9598 26.6822 17.185 26.596 17.3567 26.4239L22.0715 21.6874C22.3699 21.4439 22.8073 21.4659 23.0788 21.7422C23.3683 22.0367 23.3538 22.5268 23.0469 22.8351L16.132 29.7816C15.7256 30.19 15.6878 30.8159 16.0428 31.2705C16.3974 31.7247 17.012 31.8371 17.5033 31.5377L19.053 30.5942C19.4245 30.3676 19.9021 30.4541 20.1397 30.7914ZM26.0867 27.5792H26.0853L23.9454 27.5823C23.0081 27.5823 22.0877 27.4513 21.1978 27.1899L24.2897 24.0839C25.2775 23.0917 25.2957 21.4849 24.3299 20.502C24.1081 20.2765 23.8537 20.1016 23.5811 19.9778C24.0302 19.0518 23.8846 17.8958 23.1382 17.1177C22.6758 16.6356 22.0475 16.3662 21.3688 16.36C20.9705 16.3562 20.5812 16.4459 20.2282 16.6156C20.105 16.338 19.9292 16.0786 19.7019 15.8534C18.8934 15.0512 17.6602 14.9247 16.6989 15.4654C16.5794 15.2102 16.4153 14.9719 16.2069 14.7629C15.7328 14.2866 15.1028 14.0245 14.4323 14.0245C13.9049 14.0245 13.4023 14.1866 12.981 14.488L10.1284 11.6225C10.1277 11.6218 10.127 11.6211 10.1263 11.62C10.1249 11.619 10.1236 11.6176 10.1222 11.6163L8.66478 10.1522C8.1443 9.62941 8.12473 8.79309 8.62083 8.28819C9.09187 7.80881 9.85371 7.77501 10.3653 8.20645L16.6426 14.5125C16.8142 14.6846 17.0391 14.7708 17.2643 14.7708C17.4892 14.7708 17.7141 14.6846 17.8857 14.5125C18.2287 14.1677 18.2287 13.6086 17.8857 13.2637L10.2805 5.62435C10.024 5.36639 9.87877 5.00633 9.8822 4.63628C9.88529 4.28623 10.0188 3.96584 10.2581 3.73443C10.7604 3.24849 11.5707 3.25608 12.0644 3.75202L18.8131 10.5313C18.9847 10.7034 19.2096 10.7899 19.4345 10.7899C19.6593 10.7899 19.8846 10.7034 20.0559 10.5313C20.3992 10.1864 20.3992 9.62735 20.0559 9.28247L14.6726 3.8741C14.2458 3.35989 14.2805 2.59702 14.7567 2.12523C15.2593 1.62654 16.0919 1.64654 16.612 2.16937L25.8083 11.4069C26.2432 11.8442 26.9107 11.8846 27.3951 11.5031C27.8795 11.1214 27.9993 10.4606 27.6801 9.93187C27.6715 9.91773 27.6625 9.90394 27.6533 9.89049L24.8947 5.84852C24.5308 5.22464 24.6832 4.42797 25.2473 4.02688C25.5442 3.81547 25.9047 3.73512 26.2625 3.80168C26.6202 3.86755 26.9289 4.07137 27.1314 4.37452C27.1345 4.37935 27.1376 4.38383 27.141 4.38866L31.9297 11.2728C33.0101 12.894 33.5797 14.7819 33.577 16.7332L33.5722 20.0588C33.5718 20.2934 33.6645 20.5186 33.8297 20.6845L37.3755 24.2463L30.2543 31.3998L26.7081 27.8379C26.5433 27.6724 26.3195 27.5792 26.0867 27.5792ZM35.7488 36.9213L33.8798 35.0438L38.5098 30.3928C38.8528 30.0479 38.8531 29.4888 38.5098 29.144C38.1665 28.7994 37.61 28.7994 37.2667 29.144L32.6366 33.795L31.4961 32.6493L38.6255 25.4879L42.8783 29.7596L35.7488 36.9213Z"/>
</mask>
<path d="M44.7425 29.1353L35.3307 19.695L35.3348 16.7356C35.3379 14.4291 34.6636 12.1977 33.385 10.2823C33.382 10.2774 33.3789 10.273 33.3754 10.2685L28.5861 3.38369C28.1174 2.68565 27.4054 2.21731 26.5804 2.06488C25.7526 1.91175 24.9184 2.09695 24.2314 2.58564C23.0802 3.40472 22.6566 4.91322 23.1351 6.22479L17.8548 0.920572C16.6536 -0.286153 14.7097 -0.309605 13.5218 0.868496C13.1702 1.21682 12.9203 1.63274 12.7737 2.0766C11.616 1.34994 10.059 1.47548 9.039 2.46252C8.45707 3.0257 8.13229 3.79168 8.12473 4.61938C8.1189 5.21154 8.28232 5.79369 8.58444 6.29238C8.13812 6.4393 7.7203 6.6914 7.37011 7.04766C6.32195 8.11471 6.22925 9.7884 7.08 10.9934C6.65634 11.14 6.26015 11.3817 5.92506 11.718C5.34966 12.2963 5.03242 13.0651 5.03242 13.8828C5.03242 14.7005 5.34966 15.4692 5.92506 16.0476L8.65208 18.7869L5.23533 22.2188C3.55682 23.9053 2.63432 26.147 2.63741 28.5318L2.63947 29.7816L0.257492 32.1744C-0.0858307 32.5193 -0.0858307 33.0783 0.257492 33.4232L6.54716 39.7413C6.71883 39.9138 6.9437 40 7.16858 40C7.39346 40 7.61833 39.9138 7.78999 39.7413L10.172 37.3486L12.2968 37.3513H12.3098C14.0752 37.3513 15.7829 36.8295 17.2492 35.8418L20.9145 33.3725C21.4896 32.9852 21.8752 32.3955 22.0005 31.7116C22.1258 31.0273 21.9744 30.3383 21.5741 29.7706C21.1243 29.1329 20.4212 28.7649 19.6834 28.7111L19.8118 28.5821C21.1295 29.0905 22.5127 29.3481 23.9306 29.3481H23.9478L25.7231 29.3457L35.1271 38.7943C35.2987 38.9664 35.5236 39.053 35.7485 39.053C35.9734 39.053 36.1986 38.9664 36.3702 38.7943L44.7425 30.3838C44.9073 30.2182 45 29.9937 45 29.7596C45 29.5254 44.9073 29.3009 44.7425 29.1353ZM7.16824 14.7991C6.92448 14.5543 6.79058 14.229 6.79058 13.8828C6.79058 13.5369 6.92448 13.2117 7.16824 12.9668C7.63824 12.4947 8.39561 12.4626 8.90442 12.8892L11.7135 15.7113L9.89491 17.5381L7.16824 14.7991ZM20.1397 30.7914C20.2636 30.967 20.3106 31.1805 20.2718 31.3919C20.233 31.6036 20.1139 31.7861 19.9357 31.9061L16.2704 34.375C15.0945 35.1672 13.7254 35.5856 12.3098 35.5856H12.2992L9.80976 35.5821H9.80839C9.57527 35.5821 9.35177 35.6752 9.18697 35.8408L7.16858 37.8683L2.12173 32.799L4.14047 30.7711C4.30561 30.6052 4.39831 30.38 4.39796 30.1455L4.39556 28.529C4.39281 26.617 5.13268 24.8195 6.4785 23.4676L13.9011 16.0114C14.0429 15.8686 14.2318 15.79 14.4326 15.79C14.6334 15.79 14.8223 15.8686 14.9644 16.0114C15.236 16.2842 15.2562 16.7229 15.0149 17.0201L11.5051 20.5458C11.1621 20.8907 11.1621 21.4497 11.5051 21.7946C11.6768 21.9667 11.9016 22.0529 12.1268 22.0529C12.3517 22.0529 12.5766 21.9667 12.7483 21.7946L16.279 18.2476C16.2804 18.2462 16.2817 18.2448 16.2831 18.2434C16.2831 18.2434 16.2835 18.2431 16.2838 18.2431L17.3797 17.1419C17.6866 16.8339 18.1745 16.8194 18.4677 17.1098C18.7434 17.3833 18.765 17.824 18.5209 18.1237L13.8074 22.8586C13.4644 23.2031 13.4644 23.7621 13.8074 24.107C13.9791 24.2795 14.2039 24.3657 14.4288 24.3657C14.654 24.3657 14.8789 24.2795 15.0506 24.107L19.7908 19.3453C19.7943 19.3418 19.7974 19.3384 19.8008 19.335L20.769 18.3624C20.9211 18.21 21.1322 18.1265 21.3526 18.1255C21.5555 18.1272 21.7402 18.2044 21.8727 18.3427C22.1546 18.6366 22.1502 19.1111 21.8624 19.4001L20.8538 20.4134C20.8527 20.4144 20.8517 20.4155 20.8503 20.4168L16.1135 25.1751C15.7705 25.52 15.7705 26.079 16.1135 26.4239C16.2852 26.596 16.51 26.6822 16.7349 26.6822C16.9598 26.6822 17.185 26.596 17.3567 26.4239L22.0715 21.6874C22.3699 21.4439 22.8073 21.4659 23.0788 21.7422C23.3683 22.0367 23.3538 22.5268 23.0469 22.8351L16.132 29.7816C15.7256 30.19 15.6878 30.8159 16.0428 31.2705C16.3974 31.7247 17.012 31.8371 17.5033 31.5377L19.053 30.5942C19.4245 30.3676 19.9021 30.4541 20.1397 30.7914ZM26.0867 27.5792H26.0853L23.9454 27.5823C23.0081 27.5823 22.0877 27.4513 21.1978 27.1899L24.2897 24.0839C25.2775 23.0917 25.2957 21.4849 24.3299 20.502C24.1081 20.2765 23.8537 20.1016 23.5811 19.9778C24.0302 19.0518 23.8846 17.8958 23.1382 17.1177C22.6758 16.6356 22.0475 16.3662 21.3688 16.36C20.9705 16.3562 20.5812 16.4459 20.2282 16.6156C20.105 16.338 19.9292 16.0786 19.7019 15.8534C18.8934 15.0512 17.6602 14.9247 16.6989 15.4654C16.5794 15.2102 16.4153 14.9719 16.2069 14.7629C15.7328 14.2866 15.1028 14.0245 14.4323 14.0245C13.9049 14.0245 13.4023 14.1866 12.981 14.488L10.1284 11.6225C10.1277 11.6218 10.127 11.6211 10.1263 11.62C10.1249 11.619 10.1236 11.6176 10.1222 11.6163L8.66478 10.1522C8.1443 9.62941 8.12473 8.79309 8.62083 8.28819C9.09187 7.80881 9.85371 7.77501 10.3653 8.20645L16.6426 14.5125C16.8142 14.6846 17.0391 14.7708 17.2643 14.7708C17.4892 14.7708 17.7141 14.6846 17.8857 14.5125C18.2287 14.1677 18.2287 13.6086 17.8857 13.2637L10.2805 5.62435C10.024 5.36639 9.87877 5.00633 9.8822 4.63628C9.88529 4.28623 10.0188 3.96584 10.2581 3.73443C10.7604 3.24849 11.5707 3.25608 12.0644 3.75202L18.8131 10.5313C18.9847 10.7034 19.2096 10.7899 19.4345 10.7899C19.6593 10.7899 19.8846 10.7034 20.0559 10.5313C20.3992 10.1864 20.3992 9.62735 20.0559 9.28247L14.6726 3.8741C14.2458 3.35989 14.2805 2.59702 14.7567 2.12523C15.2593 1.62654 16.0919 1.64654 16.612 2.16937L25.8083 11.4069C26.2432 11.8442 26.9107 11.8846 27.3951 11.5031C27.8795 11.1214 27.9993 10.4606 27.6801 9.93187C27.6715 9.91773 27.6625 9.90394 27.6533 9.89049L24.8947 5.84852C24.5308 5.22464 24.6832 4.42797 25.2473 4.02688C25.5442 3.81547 25.9047 3.73512 26.2625 3.80168C26.6202 3.86755 26.9289 4.07137 27.1314 4.37452C27.1345 4.37935 27.1376 4.38383 27.141 4.38866L31.9297 11.2728C33.0101 12.894 33.5797 14.7819 33.577 16.7332L33.5722 20.0588C33.5718 20.2934 33.6645 20.5186 33.8297 20.6845L37.3755 24.2463L30.2543 31.3998L26.7081 27.8379C26.5433 27.6724 26.3195 27.5792 26.0867 27.5792ZM35.7488 36.9213L33.8798 35.0438L38.5098 30.3928C38.8528 30.0479 38.8531 29.4888 38.5098 29.144C38.1665 28.7994 37.61 28.7994 37.2667 29.144L32.6366 33.795L31.4961 32.6493L38.6255 25.4879L42.8783 29.7596L35.7488 36.9213Z" fill="#5266B2" stroke="#FCFCFC" stroke-width="0.3" mask="url(#path-2-inside-1)"/>
</svg>
